<svg viewBox="0 0 360 108" xmlns="http://www.w3.org/2000/svg">
    <path d="m72.38 22c-3.55-1.29-27.46-9.23-52.46 1.89 0 0-4.27 12.34-.07 29a.11.11 0 0 0 .2 0l.09-.14c1.13-1.66 6.32-10.51 12.62-13.44.05 0 .14 0 .14.08 0 1.47.05 15.69 13.32 29.93.06.07.19 0 .17-.11-.52-3.59-3.79-32.7 26-46.89.15-.07.28-.26-.01-.32zm-22.45 1.48c-18.52 4.57-27.33 16.88-28.41 18.52-.07.12-.16 0-.16 0a50.28 50.28 0 0 1 .93-15c12.13-5.52 24.64-4.2 27.64-3.76.31.02.26.18 0 .24z"
          fill="#FFFFFF"></path>
    <path d="m78.84 36.45c-6 15.74-12.57 31.49-33 47.41-10-5.4-20.2-18.48-22.72-21.39-.15-.19-.36-.14-.23.16a75.27 75.27 0 0 0 21.11 26.6c2.66 2.13 2.69 2.09 5.37 0 9.73-7.49 18.12-16.32 23.08-28a90.72 90.72 0 0 0 6.64-24.74.15.15 0 0 0 -.25-.04z"
          fill="#FFFFFF"></path>
    <g fill="#FFFFFF">
        <path d="m123.14 82.26 3.22-10.07c.08-.23.14-.33.29-.33h.21c.14 0 .2.1.3.33l3.2 10.07 3.47-9.81a.39.39 0 0 1 .45-.33h1.4c.24 0 .28.07.18.33l-5.09 13.34c-.08.2-.14.32-.24.32h-.15c-.08 0-.16-.12-.24-.32l-3.39-10.49-3.38 10.49c-.09.2-.15.32-.25.32h-.12c-.1 0-.15-.1-.25-.32l-5.08-13.34c-.11-.26-.07-.33.16-.33h1.43c.25 0 .35.07.44.33z">
        </path>
        <path d="m138.05 72.45c0-.26.08-.33.33-.33h1.14c.27 0 .35.07.35.33v13c0 .28-.08.35-.35.35h-1.14c-.25 0-.33-.07-.33-.35z">
        </path>
        <path d="m158.16 72.12c.27 0 .33.07.33.33v1c0 .28-.08.36-.33.36h-4.55v11.61c0 .26-.06.35-.33.35h-1.13c-.28 0-.36-.09-.36-.35v-11.66h-4.52c-.28 0-.35-.1-.35-.36v-1c0-.26.07-.33.35-.33z">
        </path>
        <path d="m166.24 80.23a3.22 3.22 0 0 0 -3.1-3.18 3.36 3.36 0 0 0 -3.3 3.18zm.93 3.92c.16.2.18.32 0 .47a5.89 5.89 0 0 1 -3.92 1.38 5.18 5.18 0 0 1 -.09-10.36c3.1 0 4.84 2.5 4.84 5.4 0 .28-.06.37-.34.37h-7.86a3.55 3.55 0 0 0 3.51 3.09 5.52 5.52 0 0 0 2.95-.9c.12-.06.19-.12.27-.12s.14 0 .22.14z">
        </path>
        <path d="m177.4 83.43a.33.33 0 0 1 .22-.11c.08 0 .16.05.25.17l.55.59c.17.19.17.29 0 .45a5.16 5.16 0 1 1 -3.61-8.9 5 5 0 0 1 3.61 1.46c.15.16.15.26 0 .43l-.55.61a.39.39 0 0 1 -.27.15.27.27 0 0 1 -.2-.1 3.63 3.63 0 0 0 -2.55-1 3.52 3.52 0 0 0 -3.44 3.65 3.49 3.49 0 0 0 3.44 3.61 3.58 3.58 0 0 0 2.55-1">
        </path>
        <path d="m182.83 77.5a3.59 3.59 0 0 1 3-1.87c2.11 0 3.84 1.23 3.84 4.43v5.36c0 .26-.08.35-.33.35h-1c-.26 0-.33-.07-.33-.35v-5c0-2.23-1-3.3-2.56-3.3s-2.58 1.5-2.58 3.41v4.84c0 .26-.07.35-.33.35h-1.05c-.25 0-.33-.07-.33-.35v-13.66c0-.26.08-.34.33-.34h1.05c.24 0 .33.08.33.34z">
        </path>
        <path d="m194.37 77.75a3.84 3.84 0 0 1 3.28-2.12c2.09 0 3.82 1.23 3.82 4.43v5.36c0 .26-.08.35-.33.35h-1c-.24 0-.33-.07-.33-.35v-5c0-2.23-1-3.3-2.54-3.3s-2.6 1.5-2.6 3.41v4.84c0 .26-.07.35-.33.35h-1c-.23 0-.33-.07-.33-.35v-9.2c0-.25.1-.33.33-.33h.57c.19 0 .27.1.37.33z">
        </path>
        <path d="m205.07 76.17c0-.25.08-.33.33-.33h1c.28 0 .36.08.36.33v9.25c0 .28-.08.35-.36.35h-1c-.25 0-.33-.07-.33-.35zm.84-4.68a1.14 1.14 0 0 1 0 2.27 1.14 1.14 0 0 1 0-2.27">
        </path>
        <path d="m217.58 83.43c.08-.07.13-.11.21-.11s.16.05.26.17l.54.59c.18.19.18.29 0 .45a5.13 5.13 0 0 1 -8.72-3.71 5.14 5.14 0 0 1 5.13-5.19 5 5 0 0 1 3.61 1.46c.16.16.16.26 0 .43l-.54.61a.43.43 0 0 1 -.28.15.25.25 0 0 1 -.19-.1 3.66 3.66 0 0 0 -2.56-1 3.51 3.51 0 0 0 -3.43 3.65 3.48 3.48 0 0 0 3.39 3.6 3.61 3.61 0 0 0 2.56-1">
        </path>
        <path d="m222.25 82.75c0 1 .78 1.89 2.28 1.89a4 4 0 0 0 3-1.68v-1.48a6.85 6.85 0 0 0 -2.69-.64c-1.73 0-2.59.72-2.59 1.91m-.41-5.31c-.18 0-.24-.11-.28-.33l-.17-.7c-.08-.25 0-.35.23-.43a18.94 18.94 0 0 1 3.38-.35c3.43 0 4.25 1.52 4.25 4.68v5.11c0 .26-.08.35-.33.35h-.66c-.18 0-.26-.09-.35-.35l-.1-1.19a4.7 4.7 0 0 1 -3.81 1.77 3.2 3.2 0 0 1 -3.45-3.24c0-2.15 1.64-3.16 3.92-3.16a8.55 8.55 0 0 1 3.08.62c0-2.24-.64-3.1-2.61-3.1a16.36 16.36 0 0 0 -2.95.31.34.34 0 0 1 -.13 0">
        </path>
        <path d="m232.53 71.71c0-.26.08-.34.33-.34h1c.27 0 .35.08.35.34v13.71c0 .28-.08.35-.35.35h-1c-.25 0-.33-.07-.33-.35z">
        </path>
        <path d="m253 82.73a.31.31 0 0 1 .21-.12.38.38 0 0 1 .26.16l.68.74c.17.2.19.31 0 .51a7.54 7.54 0 0 1 -5.11 2 7.09 7.09 0 0 1 0-14.17 7.45 7.45 0 0 1 5.11 2c.17.18.15.28 0 .47l-.69.76a.34.34 0 0 1 -.25.14.33.33 0 0 1 -.23-.12 5.32 5.32 0 0 0 -3.92-1.66 5.49 5.49 0 1 0 4 9.27">
        </path>
        <path d="m264.56 80.82a3.44 3.44 0 1 0 -3.43 3.65 3.51 3.51 0 0 0 3.43-3.65m-3.43-5.19a5.18 5.18 0 1 1 -5.13 5.19 5.18 5.18 0 0 1 5.13-5.19">
        </path>
        <path d="m269.12 71.71c0-.26.07-.34.33-.34h1c.27 0 .35.08.35.34v13.71c0 .28-.08.35-.35.35h-1c-.26 0-.33-.07-.33-.35z">
        </path>
        <path d="m274.68 71.71c0-.26.08-.34.33-.34h1c.28 0 .36.08.36.34v13.71c0 .28-.08.35-.36.35h-1c-.25 0-.33-.07-.33-.35z">
        </path>
        <path d="m287.42 80.23a3.21 3.21 0 0 0 -3.1-3.18 3.37 3.37 0 0 0 -3.3 3.18zm.94 3.92c.16.2.17.32 0 .47a5.93 5.93 0 0 1 -3.92 1.38 5.18 5.18 0 0 1 -.1-10.36c3.1 0 4.84 2.5 4.84 5.4 0 .28-.06.37-.33.37h-7.85a3.56 3.56 0 0 0 3.52 3.09 5.49 5.49 0 0 0 2.94-.9.78.78 0 0 1 .28-.12c.07 0 .13 0 .21.14z">
        </path>
        <path d="m292.6 80.8a3.18 3.18 0 1 0 6.3 0 3.41 3.41 0 0 0 -3.14-3.65c-1.91 0-3.16 1.6-3.16 3.65m6.3 3.06a3.92 3.92 0 0 1 -3.49 2.14c-2.73 0-4.51-2.34-4.51-5.19s1.8-5.17 4.51-5.17a4.48 4.48 0 0 1 3.77 2.18l.19-1.64c.1-.23.17-.33.37-.33h.55c.23 0 .33.08.33.33v8.82c0 3.81-1.6 5.56-4.63 5.56a10.34 10.34 0 0 1 -3.88-.7c-.23-.1-.27-.15-.19-.39l.21-.9c.06-.17.1-.25.2-.25a.43.43 0 0 1 .17.06 8.37 8.37 0 0 0 3.24.66c2.3 0 3.16-1.5 3.16-3.84z">
        </path>
        <path d="m311.49 80.23a3.22 3.22 0 0 0 -3.1-3.18 3.37 3.37 0 0 0 -3.3 3.18zm.94 3.92c.16.2.17.32 0 .47a5.93 5.93 0 0 1 -3.92 1.38 5.18 5.18 0 0 1 -.1-10.36c3.1 0 4.84 2.5 4.84 5.4 0 .28-.06.37-.33.37h-7.87a3.56 3.56 0 0 0 3.52 3.09 5.49 5.49 0 0 0 2.94-.9.78.78 0 0 1 .28-.12c.07 0 .13 0 .21.14z">
        </path>
    </g>
    <path d="m109.11 61.68h-.65l-16.11-18.48.36 11.25c.11 3.54 1.28 5.44 2.63 6.06v.49h-6.72v-.48c1.35-.62 2.48-2.59 2.59-6.06l.26-10.23c-.07-3.54-1.13-6-2.78-7.38v-.48h4.93l14.69 17.1-.25-10.7c-.12-3.4-1.21-5.3-2.6-5.92v-.48h6.65v.48c-1.35.62-2.48 2.59-2.59 5.95z"
          fill="#FFFFFF"></path>
    <path d="m117.6 48.57c0-7.16 5-12.61 12.64-12.61 7.85.04 12.76 5.41 12.76 12.61 0 7.71-5.08 12.82-12.71 12.82-7.94 0-12.69-4.79-12.69-12.82zm19.54 0c0-6.07-2.3-11.47-6.9-11.47s-6.87 5.4-6.87 11.47c0 6.28 2.3 11.69 6.87 11.69 4.76 0 6.9-5.37 6.9-11.69z"
          fill="#FFFFFF"></path>
    <path d="m161.7 56.2a72.3 72.3 0 0 1 -4.13-6.2v-.44c4.09-.73 5.81-3.21 5.81-6.5s-1.53-5.59-5.48-5.59h-1.13v18.95c0 2.52.69 3.58 1.53 4.09v.49h-8.3v-.48c.95-.54 1.54-1.64 1.54-4.09v-15.5c0-2.52-.66-3.58-1.54-4.09v-.48h9.21c6.87 0 9.94 2.63 9.94 6.73s-3.29 5.73-6.32 6.24l2.17 2.85c2.95 3.84 5.26 6.47 7.27 7.75l-.11.47a4.78 4.78 0 0 1 -3.15 1c-2.71-.05-4.53-1.51-7.31-5.2z"
          fill="#FFFFFF"></path>
    <path d="m199.12 36.36v7.24h-.48c-.8-2.7-2.37-6.1-6.32-6.1h-1.32v18.92c0 2.45.69 3.55 1.57 4.09v.49h-8.37v-.48c.95-.54 1.54-1.64 1.54-4.09v-18.93h-1.17c-4 0-5.52 3.4-6.32 6.1h-.48v-7.24z"
          fill="#FFFFFF"></path>
    <path d="m231.35 36.84c-.88.51-1.57 1.57-1.57 4.09v15.49c0 2.45.69 3.55 1.57 4.09v.49h-8.35v-.48c.92-.51 1.57-1.64 1.57-4.09v-7.17h-10.43v7.16c0 2.45.66 3.55 1.53 4.09v.49h-8.32v-.48c.87-.51 1.53-1.64 1.53-4.09v-15.5c0-2.52-.66-3.58-1.53-4.09v-.48h8.32v.48c-.84.51-1.53 1.57-1.53 4.09v7.2h10.41v-7.2c0-2.52-.65-3.58-1.57-4.09v-.48h8.37z"
          fill="#FFFFFF"></path>
    <path d="m259.3 54.7v6.3h-18.15v-.48c.87-.51 1.53-1.57 1.53-4.09v-15.5c0-2.52-.66-3.58-1.53-4.09v-.48h17.35v6.07h-.5a7.21 7.21 0 0 0 -7.09-4.93h-3v10.56l2.45-.19c2.34-.18 3.43-1.68 4.2-3.58h.44v8.22h-.44c-.8-1.82-1.9-3.29-4.24-3.47l-2.41-.18v7.74c0 2.31.92 3.26 2.92 3.26h.95c3.73 0 5.85-2 7-5.16z"
          fill="#FFFFFF"></path>
    <path d="m287.22 54.7c1.32 3.11 2.45 4.75 4.13 5.81v.49h-10.12v-.48c1.43-.43 2-2.41.59-5.73l-.44-1h-9.06l-.44 1.09c-1.06 2.74-.44 4.68 1.28 5.66v.46h-7.53v-.48c1.57-.73 3.36-2.66 4.6-5.55l8.41-19h.65zm-6.32-2.08-4.16-10-4 10z"
          fill="#FFFFFF"></path>
    <path d="m304.84 60.19c2.59 0 4-1.47 4-3.48 0-5.84-11.91-5.48-11.91-13.77 0-4.09 3.58-6.9 8.15-6.9a12.61 12.61 0 0 1 6.9 1.75v5.77h-.47c-1.72-4.89-4.5-6.39-6.69-6.39a3.21 3.21 0 0 0 -3.54 3.25c0 5.74 12 5.77 12 13.63 0 4.23-3.1 7.3-8.58 7.3a15.31 15.31 0 0 1 -7.49-1.9v-6h.47c1.79 4.36 4.46 6.74 7.16 6.74z"
          fill="#FFFFFF"></path>
    <path d="m342 36.36v7.24h-.48c-.8-2.7-2.37-6.1-6.32-6.1h-1.31v18.92c0 2.45.69 3.55 1.57 4.09v.49h-8.37v-.48c1-.54 1.54-1.64 1.54-4.09v-18.93h-1.17c-3.95 0-5.52 3.4-6.32 6.1h-.48v-7.24z"
          fill="#FFFFFF"></path>
</svg>